<?xml version="1.0" standalone="no"?>
<!DOCTYPE svg PUBLIC "-//W3C//DTD SVG 20010904//EN"
 "http://www.w3.org/TR/2001/REC-SVG-20010904/DTD/svg10.dtd">
<svg version="1.0" xmlns="http://www.w3.org/2000/svg"
 width="201.000000pt" height="158.000000pt" viewBox="0 0 201.000000 158.000000"
 preserveAspectRatio="xMidYMid meet">
<metadata>
Created by potrace 1.15, written by Peter Selinger 2001-2017
</metadata>
<g transform="translate(0.000000,158.000000) scale(0.100000,-0.100000)"
fill="#000000" stroke="none">
<path d="M1537 1568 c-2 -7 -48 -76 -102 -153 -82 -118 -95 -142 -87 -160 9
-18 3 -31 -35 -78 l-45 -57 -407 0 c-303 0 -410 -3 -419 -12 -19 -19 -17 -551
2 -567 9 -8 152 -10 512 -9 l499 3 2 291 c1 159 5 298 9 307 4 10 17 17 33 17
22 0 35 12 69 63 24 34 70 101 104 149 60 86 61 88 44 113 -19 30 -110 91
-147 100 -17 4 -28 2 -32 -7z m61 -52 c15 -8 40 -28 56 -45 l29 -30 -40 -58
c-22 -32 -62 -89 -88 -128 -26 -38 -51 -71 -56 -73 -10 -4 -89 49 -108 72 -10
12 0 33 65 128 77 113 104 148 111 148 2 0 16 -6 31 -14z m-409 -548 c-3 -40
-14 -92 -24 -115 l-17 -43 -262 -2 c-168 -2 -260 -7 -259 -13 2 -6 97 -11 254
-13 l251 -2 59 54 c36 34 79 62 109 73 27 9 53 26 59 38 7 14 9 -32 8 -155
l-2 -175 -400 -3 c-220 -1 -410 0 -422 3 -23 5 -23 6 -23 203 0 141 3 201 12
210 9 9 98 12 338 12 l326 0 -7 -72z"/>
<path d="M150 178 c0 -107 14 -156 46 -168 32 -12 62 2 74 36 6 14 10 68 10
120 0 77 -3 94 -15 94 -12 0 -15 -18 -15 -105 0 -93 -2 -105 -19 -115 -15 -7
-23 -6 -35 6 -12 12 -16 38 -16 115 0 81 -3 99 -15 99 -12 0 -15 -16 -15 -82z"/>
<path d="M317 253 c-4 -3 -7 -60 -7 -125 0 -98 3 -118 15 -118 11 0 15 12 15
50 0 43 3 50 20 50 13 0 21 -8 25 -25 3 -14 7 -36 10 -50 3 -14 11 -25 19 -25
11 0 12 9 4 48 -6 26 -14 52 -18 57 -5 6 -2 19 6 29 20 28 18 80 -4 99 -18 17
-73 23 -85 10z"/>
<path d="M450 135 c0 -77 4 -125 10 -125 6 0 10 23 10 51 0 47 2 50 22 47 19
-2 25 -12 32 -51 5 -29 13 -47 22 -47 14 0 12 35 -7 94 -6 19 -6 33 1 40 16
16 12 83 -6 100 -8 9 -31 16 -50 16 l-34 0 0 -125z"/>
<path d="M780 178 c0 -104 14 -156 44 -170 30 -13 63 4 76 38 6 14 10 68 10
120 0 77 -3 94 -15 94 -12 0 -15 -18 -15 -105 0 -93 -2 -105 -19 -115 -15 -7
-23 -6 -35 6 -12 12 -16 38 -16 115 0 81 -3 99 -15 99 -12 0 -15 -16 -15 -82z"/>
<path d="M1050 171 c0 -133 26 -184 83 -162 34 13 47 58 47 162 0 72 -3 89
-15 89 -12 0 -15 -18 -15 -99 0 -77 -4 -103 -16 -115 -19 -20 -19 -20 -38 0
-12 12 -16 38 -16 115 0 81 -3 99 -15 99 -12 0 -15 -17 -15 -89z"/>
<path d="M1216 199 c-9 -88 -8 -189 3 -189 9 0 21 69 22 134 1 35 4 27 22 -47
12 -51 25 -86 31 -84 6 2 21 44 33 93 l22 89 0 -61 c1 -73 10 -124 22 -124 10
0 12 121 3 198 -5 33 -12 52 -20 52 -14 0 -26 -36 -46 -135 l-12 -60 -13 60
c-25 110 -34 135 -47 135 -9 0 -15 -20 -20 -61z"/>
<path d="M1776 148 c-14 -62 -26 -119 -26 -125 0 -24 20 -13 26 15 11 50 13
53 41 50 22 -2 29 -10 36 -40 5 -21 15 -38 23 -38 7 0 12 6 9 13 -2 6 -13 55
-25 107 -28 126 -29 130 -45 130 -8 0 -22 -38 -39 -112z"/>
</g>
</svg>
