<?xml version="1.0" standalone="no"?>
<!DOCTYPE svg PUBLIC "-//W3C//DTD SVG 20010904//EN"
 "http://www.w3.org/TR/2001/REC-SVG-20010904/DTD/svg10.dtd">
<svg version="1.0" xmlns="http://www.w3.org/2000/svg"
 width="119.000000pt" height="164.000000pt" viewBox="0 0 119.000000 164.000000"
 preserveAspectRatio="xMidYMid meet">
<metadata>
Created by potrace 1.10, written by Peter Selinger 2001-2011
</metadata>
<g transform="translate(0.000000,164.000000) scale(0.100000,-0.100000)"
fill="#000000" stroke="none">
<path d="M531 1614 c-86 -61 -43 -196 63 -198 106 -2 156 119 79 190 -31 29
-105 33 -142 8z m115 -22 c52 -29 44 -121 -13 -143 -60 -23 -113 13 -113 76 0
70 62 103 126 67z"/>
<path d="M458 1340 c-20 -11 -47 -34 -60 -52 -21 -30 -23 -46 -26 -160 l-4
-128 31 0 31 0 0 -105 0 -105 -185 0 c-184 0 -186 0 -210 -25 -24 -23 -25 -28
-25 -175 0 -147 1 -152 25 -175 20 -21 34 -25 84 -25 l59 0 4 -160 c3 -159 3
-160 31 -187 l27 -28 345 -3 c299 -2 350 -1 379 13 51 24 58 51 57 217 l-2
148 54 0 c40 0 61 6 81 21 l26 20 0 155 c0 151 -1 156 -25 179 -24 25 -26 25
-213 25 l-190 0 -1 105 -2 105 33 0 33 0 -2 112 c-1 62 -2 121 -2 130 -1 22
-47 76 -85 99 l-29 18 -44 -70 c-25 -38 -48 -69 -51 -69 -4 0 -27 31 -52 69
-25 39 -47 70 -50 70 -3 0 -22 -9 -42 -19z m75 -73 c50 -76 63 -84 87 -62 11
10 34 40 51 66 17 27 33 49 35 49 17 0 59 -40 70 -67 18 -42 19 -223 2 -223
-6 0 -20 -7 -30 -17 -26 -23 -27 -213 -1 -234 12 -11 61 -15 197 -16 142 -2
183 -6 195 -17 10 -11 15 -49 19 -145 6 -162 -2 -181 -75 -181 -78 0 -83 -11
-83 -165 0 -73 -5 -146 -11 -163 -15 -43 -67 -62 -175 -62 l-86 0 15 24 c9 13
13 33 10 45 -17 66 42 108 137 98 91 -10 90 -14 90 265 l0 236 -25 16 c-34 22
-72 20 -98 -6 l-22 -23 -22 23 c-21 21 -28 22 -100 16 -104 -8 -114 -8 -214 1
-84 8 -86 7 -105 -17 l-19 -25 -18 24 c-22 28 -81 32 -109 6 -16 -15 -18 -36
-18 -252 0 -130 5 -243 10 -251 7 -11 25 -14 72 -12 49 2 70 -2 96 -18 32 -20
35 -29 32 -86 -1 -18 3 -35 9 -39 28 -16 4 -25 -69 -25 -88 0 -142 16 -159 48
-7 12 -11 81 -11 165 0 171 -3 177 -90 176 -82 -2 -90 12 -90 170 0 181 -11
171 203 171 225 0 217 -5 217 135 0 99 -1 104 -25 123 -24 19 -25 25 -25 126
l0 106 40 40 c23 23 45 38 49 35 5 -3 25 -29 44 -58z m-193 -586 c-16 -31 -12
-109 9 -149 81 -156 335 -192 466 -65 21 20 44 52 53 72 18 43 19 126 2 146
-11 13 -6 15 34 15 l46 0 0 -244 0 -245 -31 11 c-101 35 -230 -54 -189 -131
11 -21 9 -21 -129 -21 l-141 0 10 25 c27 71 -62 143 -162 132 l-48 -6 0 239 0
240 45 0 c42 0 45 -2 35 -19z m471 -7 c37 -99 -34 -200 -156 -223 -159 -30
-309 101 -254 222 l11 24 194 1 195 0 10 -24z m-391 -186 c0 -17 -10 -6 -25
25 l-16 32 20 -25 c11 -14 21 -28 21 -32z m391 9 c-10 -9 -11 -8 -5 6 3 10 9
15 12 12 3 -3 0 -11 -7 -18z"/>
<path d="M90 716 c-7 -10 -12 -54 -11 -128 0 -95 2 -114 17 -125 24 -18 65
-16 92 3 20 14 22 23 22 123 0 92 -3 110 -18 124 -23 21 -85 22 -102 3z m90
-126 l0 -110 -40 0 -40 0 0 110 0 110 40 0 40 0 0 -110z"/>
<path d="M1016 714 c-25 -24 -23 -231 2 -250 25 -19 66 -17 85 4 26 28 25 222
-1 245 -23 21 -66 22 -86 1z m74 -124 l0 -110 -35 0 -35 0 0 110 0 110 35 0
35 0 0 -110z"/>
<path d="M557 318 c-45 -35 -19 -110 38 -110 32 0 65 32 65 63 0 45 -66 75
-103 47z m65 -43 c3 -13 3 -27 0 -30 -11 -11 -53 -4 -58 10 -10 25 4 45 30 45
17 0 25 -7 28 -25z"/>
<path d="M630 683 c-8 -3 -24 -16 -36 -30 -18 -20 -28 -24 -65 -20 -36 3 -40
5 -21 11 12 5 22 15 22 22 0 24 -36 15 -64 -16 -24 -28 -25 -32 -11 -46 8 -9
15 -19 15 -23 0 -11 47 -31 71 -31 11 0 34 14 51 30 24 25 38 30 75 30 39 0
44 -2 33 -15 -7 -8 -21 -15 -31 -15 -21 0 -25 -15 -8 -25 19 -12 60 5 71 30 6
14 19 25 30 25 10 0 18 5 18 10 0 6 -8 10 -19 10 -10 0 -21 9 -24 20 -8 30
-65 48 -107 33z m70 -38 c11 -13 6 -15 -34 -15 -43 0 -55 7 -39 23 12 13 60 7
73 -8z m-130 -46 c0 -15 -49 -22 -65 -9 -24 20 -18 26 25 22 22 -2 40 -8 40
-13z"/>
</g>
</svg>
